<?xml version="1.0"?>
<svg width="304.01532" height="289.8732" xmlns="http://www.w3.org/2000/svg" xmlns:svg="http://www.w3.org/2000/svg">

 <metadata id="metadata3044">image/svg+xml</metadata>
 <g>
  <title>Layer 1</title>
  <g id="layer1">
   <g display="inline" id="background">
    <rect fill="#453e3e" stroke="#000000" stroke-width="4.198848" stroke-miterlimit="10" stroke-dashoffset="0" rx="21.08169" ry="21.08169" y="2.099393" x="2.099425" height="285.67435" width="299.81647" id="rect2936"/>
    <path fill="#332d2d" stroke="#000000" stroke-width="4" stroke-miterlimit="10" stroke-dashoffset="0" d="m289.388428,144.936554c0,75.873291 -61.507492,137.380737 -137.380768,137.380737c-75.873291,0 -137.380753,-61.507446 -137.380753,-137.380737c0,-75.873291 61.507462,-137.380737 137.380753,-137.380737c75.873306,0 137.380768,61.507446 137.380768,137.380737z" id="path2938"/>
   </g>
   <path fill="none" stroke="#ffffff" stroke-width="3.161597" stroke-miterlimit="4" id="majorTick" d="m152.007645,9.590027l0,26.504333"/>
   <path fill="none" stroke="#ffffff" stroke-width="1.580798" stroke-miterlimit="4" d="m151.988007,12.45636l0.039307,13.241638" id="minorTick"/>
   <g display="inline" id="needle">
    <path fill="#000000" stroke="#000000" id="pivot" d="m156.522415,134.784393c5.606918,2.494568 8.129959,9.062119 5.635422,14.668945c-2.494583,5.606949 -9.062149,8.130051 -14.669067,5.635468c-5.606918,-2.494583 -8.129944,-9.06218 -5.635345,-14.669113c2.494537,-5.606842 9.062073,-8.129883 14.668991,-5.6353z"/>
    <path fill="#ffffff" stroke="#000000" stroke-width="2" stroke-linejoin="round" stroke-miterlimit="4" d="m151.934708,31.536255l-4.510986,17.86734l2.111542,85.126465l4.901245,-0.223541l2.15509,-84.646301l-4.656891,-18.123962z" id="path3902"/>
   </g>
   <path fill="#000000" stroke="#000000" stroke-width="0.944306px" id="path3909" d="m148.911453,116.114868l6.192368,0.026611l-0.674438,19.25769l-4.896805,0.292175l-0.621124,-19.576477z"/>
   <rect fill="none" ry="10" rx="9.999999" y="76.301756" x="84.569367" height="86.428574" width="127.14286" id="foreground"/>
  </g>
 </g>
</svg>